<?xml version="1.0" encoding="UTF-8" standalone="no"?>
<svg
   width="1024"
   height="585"
   viewBox="0 0 1024 585"
   version="1.1"
   id="svg43"
   xmlns="http://www.w3.org/2000/svg"
   xmlns:svg="http://www.w3.org/2000/svg">
  <path
     fill="#f65a02"
     d="m 175.61891,129.62915 c 16.89392,-1.84689 43.09657,6.53787 56.94465,16.21389 22.41402,15.66263 33.87038,32.68848 39.29037,58.99182 -7.02062,5.72065 -25.21664,16.11558 -33.40766,20.68103 -25.6732,14.41615 -52.02073,27.59811 -78.95126,39.50023 -18.15738,7.85546 -35.69928,14.93405 -54.70044,20.41066 -12.690842,-13.14245 -20.128529,-35.60191 -21.34809,-53.56701 -3.871179,-57.02819 35.85205,-98.47538 92.17243,-102.23062 z"
     id="path2"
     style="stroke-width:0.877909" />
  <path
     id="path3"
     d="m 615.13366,122.55394 c -2.40141,0.0221 -4.82472,0.16568 -7.26325,0.43665 -38.80571,4.31176 -66.81836,39.1924 -62.65481,78.01409 4.16356,38.82257 38.93595,66.96699 77.77327,62.95193 39.04891,-4.03702 67.38138,-39.03801 63.195,-78.07038 -3.92474,-36.59283 -35.02902,-63.66368 -71.05021,-63.33229 z m -0.52893,28.44754 c 21.55351,-0.64437 40.50969,15.15248 43.34541,36.99823 3.02477,23.30214 -13.44193,44.63438 -36.75063,47.60838 -23.2376,2.9661 -44.48887,-13.43995 -47.50486,-36.67187 -3.01511,-23.23104 13.34392,-44.51833 36.56834,-47.58362 1.45597,-0.19219 2.90483,-0.30816 4.34174,-0.35112 z"
     style="fill:#fefdcd;fill-opacity:1;stroke-width:0.877909" />
  <path
     fill="#fefdcd"
     d="m 408.69547,126.79385 2.04314,0.0948 c 4.88705,2.57108 56.97451,76.88759 64.74057,86.19756 0.41443,-28.49609 0.022,-57.49605 0.1677,-86.06501 l 28.26511,-0.18609 0.007,133.37592 -23.76878,0.0571 -2.10636,-0.21068 c -4.2856,-2.4596 -56.37483,-75.42254 -64.9109,-86.18351 1.2898,26.0716 0.32925,59.85032 0.29676,86.43632 l -28.95962,-0.0825 c 0.44779,-15.52393 0.15365,-32.36808 0.15629,-47.99471 l 0.0447,-85.28992 z"
     id="path5"
     style="stroke-width:0.877909" />
  <path
     id="path6"
     d="m 923.01031,126.9272 -34.68889,0.004 c -17.85891,43.46263 -32.91665,89.84041 -51.14431,133.37414 l 32.62719,-0.0225 9.16514,-25.37073 47.4486,-0.0675 8.1118,-0.007 c 3.01162,8.01521 6.37604,17.64453 9.73006,25.37973 l 32.07356,-0.0607 C 964.10263,230.05358 952.03854,199.87859 940.159,169.63303 934.83818,156.25971 928.74379,139.8595 923.01031,126.92684 Z m -17.22518,30.54075 c 2.23014,1.70733 17.65714,45.97195 19.59753,51.9884 l -17.83288,0.0743 -20.44828,0.11929 c 4.96072,-15.36768 12.82723,-37.20138 18.68363,-52.18196 z"
     style="fill:#fefdcd;fill-opacity:1;stroke-width:0.877909" />
  <path
     fill="#fefdcd"
     d="m 809.19401,126.74821 c 9.73721,0.2844 20.45775,0.0965 30.28279,0.12903 -6.06708,18.12926 -13.73215,37.32591 -20.4666,55.38231 -9.544,26.10233 -19.40413,52.08879 -29.57156,77.95323 l -35.98113,0.12641 c -4.0661,-11.3649 -9.19371,-23.63571 -13.5917,-34.97516 l -20.13292,-52.33107 c -5.83266,-15.30009 -11.58368,-30.63091 -17.25303,-45.99245 9.98129,-0.25632 20.44111,-0.12377 30.49616,-0.23963 3.28114,7.15671 7.11895,18.58395 9.89437,26.23399 l 18.7316,51.97205 c 2.78244,7.52277 6.06534,16.92929 9.47907,23.96576 4.59554,-10.12106 35.15403,-99.45149 38.11295,-102.22447 z"
     id="path8"
     style="stroke-width:0.877909" />
  <path
     fill="#fefdcd"
     d="m 348.66986,135.94494 c 4.64734,-0.25105 9.46589,-0.352 14.02017,0.75491 3.32856,0.80845 7.01447,2.38938 8.767,5.52489 1.34775,2.41219 1.19234,5.05175 0.35735,7.58333 -11.23598,34.06839 -134.36553,100.56455 -169.03666,118.15044 -46.16963,23.41714 -113.83134,52.62338 -165.855598,57.59701 -8.775769,0.83917 -19.131981,1.59408 -27.6346943,-1.31846 -2.7736544,-0.94979 -5.3427308,-2.64834 -6.5965389,-5.3862 -1.4987744,-3.27157 -0.8578225,-7.04524 0.3793031,-10.28609 7.2278331,-18.92892 46.8009281,-50.25243 65.6659961,-58.54415 -2.572589,3.58583 -4.138972,5.06667 -7.551822,7.84053 -68.0972241,57.4943 -21.881062,59.89158 35.962679,41.58414 72.188785,-22.84832 138.301675,-56.77626 200.889345,-99.18378 42.94556,-29.09914 72.84993,-65.52706 -6.86785,-46.59023 -4.88528,1.15255 -12.82607,4.5277 -17.63848,4.17834 l -0.0694,-0.48104 c 2.76663,-2.46399 9.21479,-4.90428 12.68647,-6.26926 20.00385,-8.03189 41.06133,-13.13631 62.52269,-15.15438 z"
     id="path9"
     style="stroke-width:0.877909" />
  <path
     fill="#f65a02"
     d="m 121.97034,326.82306 c 7.68352,2.09268 15.85434,6.63092 23.66079,9.22132 8.63354,2.86515 15.00619,3.46293 23.976,3.86321 24.68632,1.10252 41.44327,-4.73663 63.04511,-15.36945 0.41881,2.40869 0.85431,4.78315 1.14933,7.21115 3.63938,17.27954 17.67886,25.57126 34.3524,26.86427 l 0.10185,13.9553 -182.8101,0.0202 -0.09044,-13.46461 c 21.35952,-3.77984 31.41018,-10.07719 36.61506,-32.30139 z"
     id="path10"
     style="stroke-width:0.877909" />
  <path
     id="path11"
     d="m 496.55611,294.94526 c -1.37878,0.0358 -2.76855,0.14285 -4.16619,0.32186 -22.28582,2.85461 -38.05612,23.20899 -35.25613,45.50166 2.80087,22.29179 23.11489,38.1122 45.41388,35.36643 22.37625,-2.7563 38.26473,-23.15739 35.4542,-45.52642 -2.63405,-20.97097 -20.76405,-36.20176 -41.44576,-35.66353 z m -0.0518,16.61072 c 12.16469,-0.61275 23.08377,8.00533 25.09389,20.27949 2.14323,13.09329 -6.64702,25.4741 -19.71455,27.7678 -8.587,1.50806 -17.32192,-1.71694 -22.87011,-8.44267 -5.54819,-6.7266 -7.05456,-15.91564 -3.94111,-24.06077 3.11345,-8.14424 10.36492,-13.98658 18.98529,-15.29626 0.81979,-0.12455 1.63561,-0.20673 2.44659,-0.24759 z"
     style="fill:#fefdcd;fill-opacity:1;stroke-width:0.877909" />
  <path
     id="path13"
     d="m 782.63629,297.35585 c -5.24033,0.0899 -10.31698,0.30051 -14.93163,0.3196 -0.19579,25.05072 0.46534,51.72459 -0.1958,76.54884 20.55963,-0.0474 43.40677,3.12181 59.3867,-11.0468 14.74184,-15.71354 14.80196,-39.78747 -0.67751,-54.87163 -10.6613,-10.39603 -27.8607,-11.21977 -43.58176,-10.95001 z m 9.53877,15.11845 c 7.70627,-0.051 15.59524,0.7239 21.25187,6.22113 9.93034,9.66461 9.1743,24.68542 0.0518,34.45711 -9.41234,6.91972 -17.57851,5.91069 -28.83468,6.07484 -0.23707,-15.33257 -0.0687,-31.21976 -0.0247,-46.57077 2.43869,-0.0562 4.98714,-0.16533 7.55586,-0.18231 z"
     style="fill:#fefdcd;fill-opacity:1;stroke-width:0.877909" />
  <path
     id="path15"
     d="m 887.29048,297.35134 c -7.7627,-0.008 -15.5827,0.3423 -22.70349,0.27909 -0.0525,25.08936 -0.50791,51.32445 -0.0338,76.32602 4.97842,0.40028 11.69429,0.19713 16.80433,0.17781 l 0.072,-25.7196 11.46544,-0.054 c 6.04948,7.95289 12.16992,18.36812 17.92964,25.63632 l 8.38411,0.0518 c 3.63497,-0.0342 7.35042,-0.006 10.95906,-0.2881 -5.65442,-7.58333 -14.60149,-19.73107 -19.23743,-27.66202 7.29635,-3.8474 12.46643,-7.26297 15.10052,-15.52134 4.17053,-13.04151 -2.29978,-28.32647 -16.37443,-31.36455 -6.89685,-1.48831 -14.60318,-1.85381 -22.366,-1.86139 z m 6.74335,14.65479 c 4.25511,0.17272 8.41836,0.86891 11.80315,2.78646 6.67291,3.77632 5.04041,10.44843 1.26492,15.8162 -6.30418,4.62602 -17.66621,3.33335 -25.7264,3.26137 -0.0525,-4.73311 -0.41159,-17.36029 0.30834,-21.50615 3.74916,-0.17952 8.09497,-0.53058 12.34999,-0.35788 z"
     style="fill:#fefdcd;fill-opacity:1;stroke-width:0.877909" />
  <path
     fill="#fefdcd"
     d="m 717.82847,297.66335 16.78153,-0.0957 c 0.51452,17.7202 -0.0211,55.49292 0.15014,75.59459 -0.2432,0.26422 -0.48641,0.52756 -0.72962,0.7909 -4.61574,0.20716 -10.0691,0.0737 -14.74893,0.0711 -4.38658,-4.86566 -8.69413,-11.15687 -12.77339,-16.44212 -8.39208,-10.87334 -16.51725,-22.24263 -25.12884,-32.92724 l 0.1001,49.2649 c -5.36732,0.16327 -11.21228,0.0764 -16.61822,0.1027 0.41091,-24.92432 -0.0281,-51.28999 -0.008,-76.36617 l 15.31525,-0.0755 c 12.21761,14.03782 25.23772,33.98061 37.50185,48.93221 z"
     id="path17"
     style="stroke-width:0.877909" />
  <path
     fill="#f65a02"
     d="m 268.39279,249.10068 c 1.20464,-0.006 0.67695,-0.20101 1.5936,0.69698 0.0791,1.63974 -0.13346,2.23664 -0.55666,3.73944 -11.9103,42.28374 -56.46174,72.05616 -100.05264,67.31077 -6.77741,-0.73824 -12.29311,-1.98472 -18.81414,-3.9431 -3.02213,-1.01912 -5.86867,-2.39991 -8.76612,-3.73154 28.92626,-9.33279 56.76466,-21.7493 83.03667,-37.0336 14.67078,-8.64284 28.75856,-18.58395 43.55929,-27.03895 z"
     id="path18"
     style="stroke-width:0.877909" />
  <path
     fill="#fefdcd"
     d="m 565.65325,297.63174 16.92904,-0.0229 c 0.32487,10.48096 -0.0308,20.85219 0.0562,31.4973 0.0904,10.99096 -2.31884,26.68695 11.51168,30.659 9.49224,2.72558 19.26017,-1.94082 21.07416,-12.08997 1.26697,-7.08738 0.75422,-15.90227 0.74894,-23.35568 0.0184,-8.89654 0.10361,-17.79218 0.2555,-26.68695 l 16.74993,-0.004 0.0948,14.84363 c -0.10623,15.54237 3.23374,42.03883 -7.85297,53.69869 -12.33175,12.9704 -38.61869,13.06169 -51.39735,0.2054 -3.14242,-3.15745 -5.39541,-7.08825 -6.53245,-11.39475 -2.79297,-10.20534 -1.69983,-44.63362 -1.63749,-57.34947 z"
     id="path19"
     style="stroke-width:0.877909" />
  <path
     fill="#fefdcd"
     d="m 383.564,297.65457 52.89963,-0.0641 0.0606,14.89543 -36.37712,0.16415 0.0703,16.22179 33.26629,-0.12904 -0.007,9.4829 c 0.0492,2.31476 0.35472,3.52174 -0.8543,5.1606 -5.41825,0.77861 -25.58454,0.3757 -32.43745,0.47313 l -8.8e-4,29.98837 c -5.47619,0.27036 -11.23949,0.0711 -16.74465,-0.0299 z"
     id="path20"
     style="stroke-width:0.877909" />
  <path
     fill="#fefdcd"
     d="m 1000.8124,297.30871 c 6.0143,0.31338 12.4502,0.14835 18.4998,0.0983 -5.9091,10.02713 -10.5978,14.55258 -16.6824,24.47526 -4.1114,6.3724 -8.25144,13.65949 -9.8891,17.43203 -3.88131,8.94063 -2.06214,16.67747 -1.9202,34.47731 -5.64562,0.22121 -11.62492,0.11236 -17.29686,0.10183 0.0525,-8.59632 0.81073,-25.98939 -0.76093,-34.24688 -1.3785,-7.23485 -22.75243,-33.10689 -28.1171,-41.93408 l 18.89494,-0.0851 c 6.12854,10.06488 12.30982,20.09817 18.53493,30.10072 5.82127,-8.54979 13.05607,-23.22841 18.73692,-30.41936 z"
     id="path21"
     style="stroke-width:0.877909" />
  <path
     fill="#f65a02"
     d="m 127.61511,30.795627 1.39516,0.158882 c 1.86227,2.498225 20.9328,73.975041 21.23659,79.667591 -1.99837,1.28949 -2.42859,0.88658 -5.15483,1.05336 -0.73578,-1.0955 -3.30837,-10.83384 -3.89401,-12.720231 -6.73614,-21.70191 -12.58548,-43.80146 -19.5868,-65.406815 1.84472,-0.932225 4.09244,-1.88464 6.00389,-2.752787 z"
     id="path22"
     style="stroke-width:0.877909" />
  <path
     fill="#f65a02"
     d="m 177.19144,15.225169 c 1.9211,-0.04915 3.84922,-0.355511 5.42614,0.556526 0.74808,5.792618 0.32663,23.852524 0.33014,30.680071 l 0.0193,61.674394 c -2.00539,0.0474 -4.71582,0.41256 -6.10397,-1.09989 -0.82972,-8.476061 -0.38281,-28.639181 -0.28535,-37.752521 0.18175,-16.87838 -0.54437,-37.540973 0.61373,-54.05858 z"
     id="path23"
     style="stroke-width:0.877909" />
  <path
     fill="#f65a02"
     d="m 229.46416,30.322491 c 2.9958,0.831279 4.20658,1.662558 6.91526,3.256647 -2.44,11.529934 -7.12159,26.383231 -10.5362,37.928081 -3.78249,12.7931 -7.90654,27.75436 -12.27204,40.235831 -1.20024,0.81372 -1.1221,0.79529 -2.56819,0.82513 l -1.39166,-1.73892 c -0.97723,-5.79262 17.08884,-69.677321 19.85283,-80.506769 z"
     id="path24"
     style="stroke-width:0.877909" />
  <path
     fill="#f65a02"
     d="m 83.023272,56.178159 c 4.277697,3.59723 36.337598,59.436001 38.537028,65.851861 -1.24854,1.66431 -1.71388,1.46417 -3.84308,2.37972 C 106.40486,108.27046 86.589779,77.181339 77.347773,59.771009 Z"
     id="path25"
     style="stroke-width:0.877909" />
  <path
     fill="#f65a02"
     d="m 275.41341,55.367069 c 2.73239,1.82671 3.49627,2.53861 5.82828,4.89024 -12.65925,21.80988 -25.85408,43.305501 -39.57221,64.465801 l -0.66378,0.37307 c -1.84297,-0.35288 -2.04403,-0.44329 -3.45413,-1.68099 l -0.21335,-1.26403 c 8.80563,-16.28939 29.21688,-53.421301 38.07519,-66.784091 z"
     id="path26"
     style="stroke-width:0.877909" />
  <path
     fill="#f65a02"
     d="m 45.107875,88.935989 c 7.680014,3.6341 44.079955,42.875381 52.47555,51.616531 l -3.423387,4.37761 C 77.229239,127.88232 58.414216,110.86613 40.922372,94.218599 Z"
     id="path27"
     style="stroke-width:0.877909" />
  <path
     fill="#f65a02"
     d="m 312.11626,87.656149 c 2.06159,0.64168 4.34795,3.25401 5.94331,4.84898 -17.75702,16.343801 -35.0197,33.625981 -52.62394,49.751211 -0.93508,0.85147 -1.2942,0.99104 -2.37855,1.56161 l -0.88328,-0.68293 c -1.33195,-3.04685 -0.16419,-5.67675 2.15992,-7.96957 15.95268,-15.73285 31.60509,-32.01871 47.78254,-47.509301 z"
     id="path28"
     style="stroke-width:0.877909" />
  <path
     fill="#f65a02"
     d="m 18.8464,128.33527 c 6.552633,1.47119 52.000535,30.35177 58.576007,36.16897 0.406515,1.724 -0.418814,2.97838 -1.163372,4.68834 -8.126051,-3.77982 -55.524902,-30.57123 -58.987805,-35.65106 -0.310811,-2.0444 0.613734,-3.29001 1.57517,-5.20625 z"
     id="path29"
     style="stroke-width:0.877909" />
  <path
     fill="#f65a02"
     d="m 5.3337188,174.843 c 20.1100932,5.95676 40.8418252,12.37877 61.0985452,17.56043 -0.387198,1.98296 -0.472372,4.1801 -1.738473,5.5916 -20.377005,-6.14725 -42.017487,-9.81558 -62.3716692,-16.95475 0.9482583,-2.06196 2.0089023,-4.15376 3.011597,-6.19728 z"
     id="path30"
     style="stroke-width:0.877909" />
  <path
     fill="#f65a02"
     d="m 6.137104,221.06632 c 6.261138,-0.0728 51.234033,1.42905 55.668893,2.88269 1.066789,2.04617 0.674317,1.9461 0.554903,4.59091 l -56.157066,0.36429 z"
     id="path31"
     style="stroke-width:0.877909" />
  <defs
     id="defs32" />
  <path
     fill="url(#gradient_0)"
     d="m 232.65224,324.53814 c 12.60832,-8.23115 24.17269,-16.94598 33.9573,-28.52155 1.80608,-2.13657 13.76116,-19.10361 14.11851,-19.31341 0.53207,4.02912 -10.56606,22.77634 -13.60399,26.79492 -8.60544,11.38422 -20.96002,21.18839 -33.32249,28.25119 -0.29502,-2.428 -0.73052,-4.80246 -1.14933,-7.21115 z"
     id="path32"
     style="fill:#f65a02;fill-opacity:1;stroke-width:0.877909" />
  <path
     fill="#fa900f"
     d="m 200.78374,59.190779 1.29859,0.63289 c 2.52079,3.88165 -2.04226,25.74595 -2.56732,31.16989 -0.48993,5.05438 -1.18444,13.292561 -2.09846,18.115211 l -1.34951,-0.77598 c -2.11689,-5.35635 2.88692,-43.217721 4.7167,-49.142011 z"
     id="path33"
     style="stroke-width:0.877909" />
  <path
     fill="#fa900f"
     d="m 240.91263,78.943089 c 0.32223,0.17117 0.79372,0.63816 1.094,0.90413 -0.0983,4.93325 -13.04469,32.367211 -16.0519,37.747261 -1.80345,-1.44311 -1.43028,-3.15657 -0.36526,-5.1053 4.94763,-9.05365 9.23499,-26.061951 15.32316,-33.546091 z"
     id="path34"
     style="stroke-width:0.877909" />
  <path
     fill="#fa900f"
     d="m 84.018939,102.05387 c 4.107368,1.44135 22.068951,25.03756 23.460601,29.85581 l -0.55578,-0.158 c -4.11614,-1.13676 -23.457092,-24.60217 -22.904821,-29.69781 z"
     id="path35"
     style="stroke-width:0.877909" />
  <path
     fill="#fa900f"
     d="m 116.65307,77.323539 c 2.89482,1.37113 16.73236,34.900541 17.38824,39.509891 -0.58915,-0.20366 -1.77008,-0.6803 -2.09582,-1.11569 -3.97215,-5.30982 -15.05712,-33.194981 -15.29242,-38.394201 z"
     id="path36"
     style="stroke-width:0.877909" />
  <path
     fill="#fa900f"
     d="m 272.42727,102.66219 1.11158,0.73033 c 0.73402,3.81317 -17.74647,24.75578 -21.23835,29.172 -0.96582,-0.40818 -0.56544,-0.0895 -1.13527,-1.099 0.69978,-4.09846 17.59018,-25.04722 21.26204,-28.80333 z"
     id="path37"
     style="stroke-width:0.877909" />
  <path
     fill="#fa900f"
     d="m 38.765965,166.32041 c 5.62984,-0.15888 24.412376,8.71483 30.052755,12.20058 1.819244,1.12446 1.559357,1.76351 1.777106,3.55334 -1.462782,-0.31689 -6.008269,-2.04792 -7.313884,-2.77561 -5.017867,-2.79931 -22.052262,-8.58491 -24.515977,-12.97831 z"
     id="path38"
     style="stroke-width:0.877909" />
  <path
     fill="#fa900f"
     d="m 57.714437,131.56119 c 5.354149,1.7442 26.19914,17.74566 28.140439,22.6043 -5.21718,-2.42011 -27.277348,-17.52884 -28.140439,-22.6043 z"
     id="path39"
     style="stroke-width:0.877909" />
  <path
     fill="#fa900f"
     d="m 156.23318,59.216229 1.57077,1.0323 c 2.62616,6.41498 4.4972,19.04831 2.84214,25.82319 -0.90611,0.21067 -0.96055,0.10007 -1.88158,-0.14132 -0.96934,-2.26474 -3.11082,-23.82971 -2.53133,-26.71417 z"
     id="path40"
     style="stroke-width:0.877909" />
  <path
     fill="#fa900f"
     d="m 35.148528,205.62577 c 5.639507,-0.23174 18.779903,1.55195 24.464181,3.05036 2.208212,0.58286 2.488305,1.30354 3.323292,2.95029 -7.446451,-1.06565 -15.091344,-1.88815 -22.524633,-3.10829 -2.684977,-0.43978 -4.394475,-0.27564 -5.26284,-2.89236 z"
     id="path41"
     style="stroke-width:0.877909" />
  <path
     fill="#fa900f"
     d="m 297.89942,130.46218 1.34424,0.16678 0.32839,0.67065 c -1.58219,2.9538 -7.83806,6.26839 -10.88127,8.07578 l -1.04923,0.0509 -0.18702,-0.89887 c 1.97729,-2.90639 7.37359,-6.22888 10.44489,-8.06524 z"
     id="path42"
     style="stroke-width:0.877909" />
  <path
     fill="#fa900f"
     d="m 158.6489,85.985739 2.41873,-6.7568 c 1.45311,3.31459 3.80786,25.131791 4.03703,28.719371 -1.1783,-0.53647 -1.47835,1.46276 -2.05126,-0.40025 -1.77748,-5.77999 -4.2495,-18.531511 -4.4045,-21.562321 z"
     id="path43"
     style="stroke-width:0.877909" />
</svg>
