<svg width="179" height="44" viewBox="0 0 179 44" fill="none" xmlns="http://www.w3.org/2000/svg">
<g clip-path="url(#clip0_38_2)">
<path d="M97.1564 27.8093H86.4199V43.166H89.5881V38.6778H97.1564C100.765 38.6778 102.349 38.1938 102.349 35.2897V31.1975C102.349 28.8654 101.601 27.8093 97.1564 27.8093ZM89.5881 30.0534H96.7604C98.5645 30.0534 99.1365 30.4494 99.1365 31.6815V34.8496C99.1365 36.1257 98.5645 36.4777 96.6724 36.4777H89.5881V30.0534Z" fill="black"/>
<path d="M115.637 27.8093H109.653C106.045 27.8093 104.417 28.2933 104.417 31.1975V35.3337C104.417 38.2378 105.957 38.7218 109.653 38.7218H115.637C119.333 38.7218 120.873 38.2378 120.873 35.3337V31.1975C120.873 28.2933 119.245 27.8093 115.637 27.8093ZM117.705 31.6815V34.8496C117.705 36.2137 117.089 36.4777 115.285 36.4777H110.049C108.201 36.4777 107.629 36.2577 107.629 34.8496V31.6815C107.629 30.4494 108.201 30.0534 110.049 30.0534H115.285C117.089 30.0534 117.705 30.4494 117.705 31.6815Z" fill="black"/>
<path d="M140.938 36.4337L136.89 27.8973L136.846 27.8093H133.59L129.41 36.4337L125.626 27.8093H122.193L127.254 38.6778L127.298 38.7218H131.17L135.086 30.7135L139.002 38.7218H142.918L147.935 27.9413L148.023 27.8093H144.81L140.938 36.4337Z" fill="black"/>
<path d="M161.487 27.8093H154.095C150.795 27.8093 149.255 28.8654 149.255 31.1535V34.8056C149.255 37.6218 150.663 38.6778 154.447 38.6778H164.567V36.6097H155.195C153.039 36.6097 152.379 36.1697 152.379 34.6736H161.883C164.435 34.6736 165.183 34.1016 165.183 32.0335V30.7135C165.183 28.6454 164.083 27.8093 161.443 27.8093H161.487ZM162.103 31.2415V31.3735C162.103 32.2535 161.751 32.5175 160.519 32.5175H152.335V31.5055C152.335 30.4494 152.995 29.9654 154.491 29.9654H160.299C161.575 29.9654 162.103 30.3614 162.103 31.2855V31.2415Z" fill="black"/>
<path d="M173.456 27.8093C171.388 27.8093 170.64 28.4254 170.244 28.8654V27.8093H167.075V38.6778H170.244V31.5935C170.332 30.4934 170.904 30.0534 172.092 30.0534H179V27.8093H173.456Z" fill="black"/>
<path d="M19.5809 6.64429H7.78835C2.46411 6.64429 0 8.36036 0 12.1005V17.9088C0 22.485 2.2441 24.2011 8.31637 24.2011H24.5971V20.7249H9.54843C6.24828 20.7249 5.19223 20.0649 5.10423 17.8648H20.1969C24.3771 17.8648 25.5651 16.8967 25.5651 13.5526V11.4405C25.5651 8.09635 23.7611 6.68829 19.5369 6.68829L19.5809 6.64429ZM20.5049 12.1445V12.5846C20.5049 13.8606 20.1529 14.3006 18.0408 14.3006H5.10423V12.4965C5.10423 10.8685 6.11627 10.1644 8.44838 10.1644H17.7328C20.0209 10.1644 20.5049 10.9565 20.5049 12.1445Z" fill="black"/>
<path d="M28.2932 12.1445V18.7008C28.2932 23.409 30.8893 24.2011 36.6536 24.2011H48.5781V31.3294H53.8144V6.64429H36.6536C30.8453 6.64429 28.2932 7.43632 28.2932 12.1445ZM48.6221 10.3845V20.4609H37.1376C34.2775 20.4609 33.5294 19.9329 33.5294 17.9528V12.8926C33.5294 10.9565 34.3655 10.3845 37.2696 10.3845H48.6661H48.6221Z" fill="black"/>
<path d="M77.7075 18.0408C77.5755 19.5369 77.0475 20.4169 74.5833 20.4169H66.047C63.1868 20.4169 62.2628 19.8009 62.2628 17.9088V6.64429H57.0706V18.7008C57.0706 23.321 60.0187 24.2011 65.4749 24.2011H72.6913C75.5954 24.2011 76.9594 23.453 77.7075 22.661V24.2011H82.8997V6.64429H77.7075V18.0408Z" fill="black"/>
<path d="M91.4802 0H86.376V4.70821H91.4802V0Z" fill="black"/>
<path d="M91.5241 6.64429H86.2439V24.2011H91.5241V6.64429Z" fill="black"/>
<path d="M112.777 6.64429H105.033C102.657 6.64429 101.028 7.12831 100.06 8.14035V6.64429H94.8242V24.2011H100.06V12.8046C100.192 11.3085 100.72 10.4285 103.141 10.4285H112.205C115.065 10.4285 115.989 11.0445 115.989 12.9366V24.2451H121.181V12.1885C121.181 7.56833 118.233 6.68829 112.777 6.68829V6.64429Z" fill="black"/>
<path d="M168.484 15.1807L178.472 6.64429H172.048L165.095 12.4965L158.275 6.64429H151.719L161.663 15.3567L151.147 24.2011H158.055L165.139 18.0848L172.268 24.2011H178.868L168.484 15.1807Z" fill="black"/>
<path d="M128.002 19.1408V10.7805C128.002 9.68041 128.882 8.75636 130.026 8.75636H138.738C139.838 8.75636 140.762 9.6364 140.762 10.7805V19.1408H148.595V9.19638C148.595 7.70032 147.363 6.46826 145.867 6.46826H127.65C126.154 6.46826 124.922 7.70032 124.922 9.19638V19.1408H128.046H128.002ZM141.554 14.3446H143.754V13.2886L147.011 15.2687L143.754 17.1607V16.1927H141.554V14.3446Z" fill="#BB271A"/>
<path d="M140.278 21.4728C139.178 21.4728 138.298 20.5928 138.298 19.4928V11.0884H130.334V19.4928C130.334 20.5928 129.454 21.4728 128.354 21.4728H124.878V21.6489C124.878 23.1449 126.11 24.377 127.606 24.377H145.823C147.319 24.377 148.551 23.1449 148.551 21.6489V21.4728H140.278ZM137.374 16.1926H134.646V17.2047L131.698 15.2246L134.646 13.3325V14.3445H137.374V16.1926Z" fill="#BB271A"/>
</g>
<defs>
<clipPath id="clip0_38_2">
<rect width="179" height="43.1659" fill="white"/>
</clipPath>
</defs>
</svg>
